<svg xmlns="http://www.w3.org/2000/svg" version="1.0" width="1024.000000pt" height="1024.000000pt" viewBox="0 0 1024.000000 1024.000000" preserveAspectRatio="xMidYMid meet">

<g transform="translate(0.000000,1024.000000) scale(0.100000,-0.100000)" fill="#ff2c40" stroke="none">
<path d="M2405 7836 c-92 -29 -154 -81 -194 -161 l-24 -48 2 -1871 c2 -2058 -1 -1946 65 -2130 39 -111 83 -192 161 -300 83 -116 158 -196 359 -383 99 -92 217 -202 261 -243 397 -370 553 -509 597 -534 45 -26 61 -30 132 -30 65 0 90 4 126 23 76 39 127 88 157 149 l28 57 3 847 3 847 42 -15 c74 -27 398 -103 527 -124 324 -53 707 -76 1135 -66 624 13 951 75 1300 247 315 154 553 356 748 632 329 466 442 1078 302 1637 -118 473 -391 860 -798 1133 -292 196 -649 312 -1037 337 -83 6 -942 9 -2000 9 -1467 0 -1863 -3 -1895 -13z m4110 -574 c212 -46 378 -117 531 -225 466 -330 680 -923 548 -1517 -61 -273 -184 -493 -386 -685 -281 -271 -617 -378 -1298 -416 -392 -21 -934 12 -1260 77 -245 50 -547 144 -770 241 -194 84 -261 80 -327 -17 l-23 -33 0 -848 c0 -467 -3 -849 -8 -849 -11 0 -458 413 -578 534 -110 111 -142 159 -183 269 l-26 72 -3 580 -3 580 298 198 c164 108 444 298 623 422 440 303 596 403 747 479 109 55 315 136 344 136 5 0 -11 -19 -34 -43 -232 -231 -282 -630 -112 -893 195 -304 674 -501 1170 -481 296 12 515 83 756 246 127 85 264 200 428 357 214 205 258 271 225 340 -18 37 -235 252 -369 365 -411 346 -831 553 -1255 616 -164 25 -533 24 -685 -1 -267 -44 -454 -105 -705 -231 -172 -86 -355 -201 -908 -572 -283 -188 -516 -343 -518 -343 -2 0 -4 376 -4 835 l0 836 1843 -4 1842 -3 100 -22z m-749 -1037 c250 -81 465 -202 719 -405 107 -86 152 -127 144 -133 -2 -1 -38 -32 -79 -68 -351 -305 -572 -434 -864 -504 -130 -32 -155 -30 -99 7 109 72 227 209 271 315 53 127 67 282 37 413 -31 131 -146 317 -235 378 -33 23 -50 42 -36 42 2 0 66 -20 142 -45z" fill="#ff2c40"/>
</g>
</svg>